<?xml version="1.0" encoding="UTF-8" standalone="no"?>
<svg
   width="200"
   zoomAndPan="magnify"
   viewBox="0 0 150 149.99999"
   height="200"
   preserveAspectRatio="xMidYMid"
   version="1.0"
   id="svg868"
   sodipodi:docname="icon.svg"
   inkscape:version="1.2.2 (732a01da63, 2022-12-09)"
   xmlns:inkscape="http://www.inkscape.org/namespaces/inkscape"
   xmlns:sodipodi="http://sodipodi.sourceforge.net/DTD/sodipodi-0.dtd"
   xmlns="http://www.w3.org/2000/svg"
   xmlns:svg="http://www.w3.org/2000/svg">
  <sodipodi:namedview
     id="namedview870"
     pagecolor="#505050"
     bordercolor="#eeeeee"
     borderopacity="1"
     inkscape:showpageshadow="0"
     inkscape:pageopacity="0"
     inkscape:pagecheckerboard="0"
     inkscape:deskcolor="#505050"
     showgrid="false"
     inkscape:zoom="3.8866667"
     inkscape:cx="124.91424"
     inkscape:cy="67.667238"
     inkscape:window-width="2560"
     inkscape:window-height="1369"
     inkscape:window-x="-8"
     inkscape:window-y="-8"
     inkscape:window-maximized="1"
     inkscape:current-layer="svg868" />
  <defs
     id="defs790">
    <g
       id="g785" />
    <clipPath
       id="51295770af">
      <path
         d="M 114.98438,93.863281 H 259.73437 V 238.61328 H 114.98438 Z m 0,0"
         clip-rule="nonzero"
         id="path787" />
    </clipPath>
  </defs>
  <g
     clip-path="url(#51295770af)"
     id="g794"
     transform="translate(-112.35938,-91.238283)">
    <path
       fill="#32b6f8"
       d="m 187.35937,93.863281 c -39.91015,0 -72.37499,32.464849 -72.37499,72.374999 0,39.91016 32.46484,72.375 72.37499,72.375 39.91016,0 72.375,-32.46484 72.375,-72.375 0,-39.91015 -32.46484,-72.374999 -72.375,-72.374999 z m 37.13672,34.613279 h 0.83985 c 0.60156,15.09766 -6.28907,30.26172 -20.0586,44.03125 l -0.0703,0.0664 -0.0586,0.0664 c -2.6875,3.02735 -4.69141,4.94922 -7.13672,6.84766 l -1.21094,0.94531 v 1.53907 c 0,12.48437 -3.37891,20.95703 -11.66406,29.24218 l -0.92188,0.92188 v -25.08985 l -13.47265,6.67188 -11.19922,-10.77734 7.00781,-13.55469 h -25.08984 l 0.92187,-0.92188 c 8.28906,-8.28515 16.76172,-11.66797 29.2461,-11.66797 h 1.41015 l 0.9375,-1.05468 c 2.45313,-2.76172 4.61328,-4.91797 7.11719,-7.41797 13.35156,-13.35547 27.55078,-19.84766 43.40234,-19.84766 z m -24.54687,18.88281 c -0.41406,0 -0.82422,0.0391 -1.23047,0.1211 -0.40234,0.0781 -0.79688,0.19922 -1.17969,0.35547 -0.38281,0.16015 -0.74609,0.35156 -1.08594,0.58203 -0.34375,0.23047 -0.66406,0.49219 -0.95703,0.78515 -0.28906,0.28907 -0.55078,0.60938 -0.78125,0.95313 -0.23047,0.34375 -0.42187,0.70312 -0.58203,1.08594 -0.15625,0.38281 -0.27734,0.77734 -0.35937,1.17968 -0.0781,0.40625 -0.1211,0.81641 -0.1211,1.23047 0,0.41407 0.043,0.82032 0.1211,1.22657 0.082,0.40625 0.20312,0.80078 0.35937,1.17968 0.16016,0.38282 0.35156,0.7461 0.58203,1.08985 0.23047,0.34375 0.49219,0.66015 0.78125,0.95312 0.29297,0.29297 0.61328,0.55469 0.95703,0.78125 0.33985,0.23047 0.70313,0.42578 1.08594,0.58203 0.38281,0.16016 0.77735,0.27735 1.17969,0.35938 0.40625,0.082 0.81641,0.12109 1.23047,0.12109 0.41015,0 0.82031,-0.0391 1.22656,-0.12109 0.40625,-0.082 0.79688,-0.19922 1.17969,-0.35938 0.38281,-0.15625 0.74609,-0.35156 1.08984,-0.58203 0.34375,-0.22656 0.66016,-0.48828 0.95313,-0.78125 0.29297,-0.29297 0.55078,-0.60937 0.78125,-0.95312 0.23047,-0.34375 0.42578,-0.70703 0.58203,-1.08985 0.16015,-0.3789 0.27734,-0.77343 0.35937,-1.17968 0.0781,-0.40625 0.1211,-0.8125 0.1211,-1.22657 0,-0.41406 -0.043,-0.82422 -0.1211,-1.23047 -0.082,-0.40234 -0.19922,-0.79687 -0.35937,-1.17968 -0.15625,-0.38282 -0.35156,-0.74219 -0.58203,-1.08594 -0.23047,-0.34375 -0.48828,-0.66406 -0.78125,-0.95313 -0.29297,-0.29296 -0.60938,-0.55468 -0.95313,-0.78515 -0.34375,-0.23047 -0.70703,-0.42188 -1.08984,-0.58203 -0.38281,-0.15625 -0.77344,-0.27735 -1.17969,-0.35547 -0.40625,-0.082 -0.81641,-0.1211 -1.22656,-0.1211 z m -44.76953,40.19141 2.60156,2.60156 c -1.79688,2.88672 -2.08203,5.41797 -1.85547,7.44922 2.07031,0.23047 4.64844,0.10938 7.60547,-1.6914 l 2.57812,2.57031 c -0.54687,0.69922 -1.11328,1.375 -1.6914,1.95312 -5.03516,5.03516 -11.64063,7.23828 -17.9336,6.60938 -0.3164,-6.29688 1.88672,-12.90235 6.92188,-17.9336 0.52734,-0.53125 1.13672,-1.05468 1.77344,-1.55859 z m 0,0"
       fill-opacity="1"
       fill-rule="nonzero"
       id="path792" />
  </g>
</svg>
