<?xml version="1.0" encoding="UTF-8" standalone="no"?>
<svg
   width="400"
   zoomAndPan="magnify"
   viewBox="0 0 300 52.499999"
   height="70"
   preserveAspectRatio="xMidYMid"
   version="1.0"
   id="svg370"
   sodipodi:docname="logo_wide.svg"
   inkscape:version="1.2.2 (732a01da63, 2022-12-09)"
   xmlns:inkscape="http://www.inkscape.org/namespaces/inkscape"
   xmlns:sodipodi="http://sodipodi.sourceforge.net/DTD/sodipodi-0.dtd"
   xmlns="http://www.w3.org/2000/svg"
   xmlns:svg="http://www.w3.org/2000/svg">
  <sodipodi:namedview
     id="namedview372"
     pagecolor="#505050"
     bordercolor="#eeeeee"
     borderopacity="1"
     inkscape:showpageshadow="0"
     inkscape:pageopacity="0"
     inkscape:pagecheckerboard="0"
     inkscape:deskcolor="#505050"
     showgrid="false"
     inkscape:zoom="2.332"
     inkscape:cx="187.6072"
     inkscape:cy="112.77873"
     inkscape:window-width="2560"
     inkscape:window-height="1369"
     inkscape:window-x="-8"
     inkscape:window-y="-8"
     inkscape:window-maximized="1"
     inkscape:current-layer="svg370" />
  <defs
     id="defs292">
    <g
       id="g287" />
    <clipPath
       id="17bf9bd8ec">
      <path
         d="m 45.882812,167.48437 h 40.5 v 40.5 h -40.5 z m 0,0"
         clip-rule="nonzero"
         id="path289" />
    </clipPath>
  </defs>
  <g
     id="g466"
     transform="translate(-9.4551704,-2.9294803)">
    <g
       clip-path="url(#17bf9bd8ec)"
       id="g296"
       transform="translate(-27.015437,-158.55489)">
      <path
         fill="#32b6f8"
         d="m 66.132812,167.48437 c -11.167968,0 -20.25,9.08204 -20.25,20.25 0,11.16797 9.082032,20.25 20.25,20.25 11.167969,0 20.25,-9.08203 20.25,-20.25 0,-11.16796 -9.082031,-20.25 -20.25,-20.25 z m 10.390626,9.6836 h 0.234374 C 76.925781,181.39453 75,185.63672 71.144531,189.48828 l -0.01953,0.0195 -0.01563,0.0195 c -0.753906,0.84375 -1.3125,1.38282 -1.996094,1.91407 l -0.339843,0.26562 v 0.42969 c 0,3.49219 -0.945313,5.86328 -3.261719,8.18359 l -0.257813,0.25781 v -7.01953 l -3.769531,1.86328 -3.132813,-3.01171 1.957032,-3.79688 h -7.019532 l 0.257813,-0.25781 c 2.320313,-2.31641 4.691406,-3.26172 8.183594,-3.26172 H 62.125 l 0.261719,-0.29688 c 0.6875,-0.76953 1.292969,-1.375 1.992187,-2.07421 3.738282,-3.73829 7.707032,-5.55469 12.144532,-5.55469 z m -6.867188,5.28515 c -0.234375,0 -0.460938,0.043 -0.675781,0.13282 -0.214844,0.0898 -0.40625,0.21484 -0.570313,0.38281 -0.164062,0.16406 -0.292968,0.35547 -0.382812,0.57031 -0.08984,0.21485 -0.132813,0.44141 -0.132813,0.67578 0,0.23047 0.04297,0.45703 0.132813,0.67188 0.08984,0.21484 0.21875,0.40625 0.382812,0.57031 0.164063,0.16797 0.355469,0.29297 0.570313,0.38281 0.214843,0.0898 0.441406,0.13282 0.675781,0.13282 0.230469,0 0.457031,-0.043 0.671875,-0.13282 0.214844,-0.0898 0.40625,-0.21484 0.570313,-0.38281 0.167968,-0.16406 0.292968,-0.35547 0.382812,-0.57031 0.08984,-0.21485 0.132812,-0.44141 0.132812,-0.67188 0,-0.23437 -0.04297,-0.46093 -0.132812,-0.67578 -0.08984,-0.21484 -0.214844,-0.40625 -0.382812,-0.57031 -0.164063,-0.16797 -0.355469,-0.29297 -0.570313,-0.38281 -0.214844,-0.0898 -0.441406,-0.13282 -0.671875,-0.13282 z m -12.527344,11.2461 0.726563,0.72656 c -0.5,0.80859 -0.582031,1.51563 -0.519531,2.08594 0.582031,0.0625 1.300781,0.0273 2.128906,-0.47656 l 0.722656,0.71875 c -0.152344,0.19531 -0.3125,0.38671 -0.472656,0.54687 -1.410156,1.41016 -3.257813,2.02734 -5.019532,1.85156 -0.08594,-1.76172 0.527344,-3.60937 1.9375,-5.01953 0.148438,-0.14844 0.316407,-0.29297 0.496094,-0.43359 z m 0,0"
         fill-opacity="1"
         fill-rule="nonzero"
         id="path294" />
    </g>
    <g
       fill="#99ebff"
       fill-opacity="1"
       id="g304"
       transform="translate(-27.015437,-158.55489)">
      <g
         transform="translate(97.990378,197.8706)"
         id="g302">
        <g
           id="g300">
          <path
             d="M 2.15625,0 V -22.1875 H 6.203125 V -3.171875 H 16.03125 V 0 Z m 0,0"
             id="path298" />
        </g>
      </g>
    </g>
    <g
       fill="#99ebff"
       fill-opacity="1"
       id="g312"
       transform="translate(-27.015437,-158.55489)">
      <g
         transform="translate(120.3627,197.8706)"
         id="g310">
        <g
           id="g308">
          <path
             d="M 0.734375,0 8.84375,-22.1875 h 4.5625 L 21.515625,0 h -4.3125 L 15.4375,-5.140625 H 6.78125 L 4.96875,0 Z m 7.15625,-8.296875 h 6.4375 l -3.234375,-9.21875 z m 0,0"
             id="path306" />
        </g>
      </g>
    </g>
    <g
       fill="#99ebff"
       fill-opacity="1"
       id="g320"
       transform="translate(-27.015437,-158.55489)">
      <g
         transform="translate(147.48813,197.8706)"
         id="g318">
        <g
           id="g316">
          <path
             d="m 10.703125,0.375 c -1.625,0 -3.09375,-0.3203125 -4.40625,-0.953125 C 4.992188,-1.222656 3.957031,-2.203125 3.1875,-3.515625 2.414062,-4.828125 2.03125,-6.488281 2.03125,-8.5 v -13.6875 h 4.046875 v 13.734375 c 0,1.730469 0.414063,3.015625 1.25,3.859375 0.84375,0.84375 2.003906,1.265625 3.484375,1.265625 1.445312,0 2.59375,-0.421875 3.4375,-1.265625 0.851562,-0.84375 1.28125,-2.128906 1.28125,-3.859375 V -22.1875 h 4.046875 V -8.5 c 0,2.011719 -0.402344,3.671875 -1.203125,4.984375 -0.804688,1.3125 -1.875,2.292969 -3.21875,2.9375 C 13.820312,0.0546875 12.335938,0.375 10.703125,0.375 Z m 0,0"
             id="path314" />
        </g>
      </g>
    </g>
    <g
       fill="#99ebff"
       fill-opacity="1"
       id="g328"
       transform="translate(-27.015437,-158.55489)">
      <g
         transform="translate(173.97982,197.8706)"
         id="g326">
        <g
           id="g324">
          <path
             d="m 2.15625,0 v -22.1875 h 4.046875 l 10.4375,15.625 v -15.625 H 20.6875 V 0 H 16.640625 L 6.203125,-15.59375 V 0 Z m 0,0"
             id="path322" />
        </g>
      </g>
    </g>
    <g
       fill="#99ebff"
       fill-opacity="1"
       id="g336"
       transform="translate(-27.015437,-158.55489)">
      <g
         transform="translate(201.73899,197.8706)"
         id="g334">
        <g
           id="g332">
          <path
             d="M 12.203125,0.375 C 9.960938,0.375 8.039062,-0.101562 6.4375,-1.0625 4.832031,-2.019531 3.59375,-3.359375 2.71875,-5.078125 1.851562,-6.804688 1.421875,-8.800781 1.421875,-11.0625 c 0,-2.257812 0.429687,-4.253906 1.296875,-5.984375 0.875,-1.726563 2.113281,-3.078125 3.71875,-4.046875 1.601562,-0.976562 3.523438,-1.46875 5.765625,-1.46875 2.65625,0 4.832031,0.664062 6.53125,1.984375 1.707031,1.324219 2.769531,3.179687 3.1875,5.5625 h -4.46875 c -0.273437,-1.207031 -0.855469,-2.15625 -1.75,-2.84375 -0.898437,-0.6875 -2.085937,-1.03125 -3.5625,-1.03125 -2.054687,0 -3.664063,0.699219 -4.828125,2.09375 -1.15625,1.398437 -1.734375,3.308594 -1.734375,5.734375 0,2.429688 0.578125,4.335938 1.734375,5.71875 1.164062,1.386719 2.773438,2.078125 4.828125,2.078125 1.476563,0 2.664063,-0.320313 3.5625,-0.96875 0.894531,-0.644531 1.476563,-1.535156 1.75,-2.671875 h 4.46875 c -0.417969,2.28125 -1.480469,4.070312 -3.1875,5.359375 -1.699219,1.28125 -3.875,1.921875 -6.53125,1.921875 z m 0,0"
             id="path330" />
        </g>
      </g>
    </g>
    <g
       fill="#99ebff"
       fill-opacity="1"
       id="g344"
       transform="translate(-27.015437,-158.55489)">
      <g
         transform="translate(230.00517,197.8706)"
         id="g342">
        <g
           id="g340">
          <path
             d="m 2.15625,0 v -22.1875 h 4.046875 v 9.234375 H 16.15625 V -22.1875 h 4.0625 V 0 h -4.0625 V -9.671875 H 6.203125 V 0 Z m 0,0"
             id="path338" />
        </g>
      </g>
    </g>
    <g
       fill="#99ebff"
       fill-opacity="1"
       id="g352"
       transform="translate(-27.015437,-158.55489)">
      <g
         transform="translate(257.28334,197.8706)"
         id="g350">
        <g
           id="g348">
          <path
             d="m 2.34375,0 v -22.1875 h 7.296875 c 1.726563,0 3.148437,0.289062 4.265625,0.859375 1.125,0.574219 1.953125,1.34375 2.484375,2.3125 0.539063,0.96875 0.8125,2.070313 0.8125,3.296875 0,1.210938 -0.265625,2.296875 -0.796875,3.265625 -0.523438,0.96875 -1.34375,1.746094 -2.46875,2.328125 -1.117188,0.585938 -2.546875,0.875 -4.296875,0.875 H 5 V 0 Z M 5,-11.5 h 4.5625 c 1.78125,0 3.046875,-0.375 3.796875,-1.125 0.75,-0.75 1.125,-1.78125 1.125,-3.09375 0,-1.332031 -0.375,-2.375 -1.125,-3.125 -0.75,-0.75 -2.015625,-1.125 -3.796875,-1.125 H 5 Z m 0,0"
             id="path346" />
        </g>
      </g>
    </g>
    <g
       fill="#99ebff"
       fill-opacity="1"
       id="g360"
       transform="translate(-27.015437,-158.55489)">
      <g
         transform="translate(280.5429,197.8706)"
         id="g358">
        <g
           id="g356">
          <path
             d="M 0.953125,0 9.125,-22.1875 h 2.828125 L 20.09375,0 h -2.828125 l -2.03125,-5.703125 h -9.4375 L 3.734375,0 Z M 6.59375,-7.859375 h 7.859375 l -3.9375,-10.96875 z m 0,0"
             id="path354" />
        </g>
      </g>
    </g>
    <g
       fill="#99ebff"
       fill-opacity="1"
       id="g368"
       transform="translate(-27.015437,-158.55489)">
      <g
         transform="translate(306.4959,197.8706)"
         id="g366">
        <g
           id="g364">
          <path
             d="m 2.34375,0 v -22.1875 h 6.8125 c 3.90625,0 6.78125,0.996094 8.625,2.984375 1.851562,1.992187 2.78125,4.714844 2.78125,8.171875 0,3.40625 -0.929688,6.101562 -2.78125,8.078125 C 15.9375,-0.984375 13.0625,0 9.15625,0 Z M 5,-2.21875 h 4.09375 c 2.15625,0 3.867188,-0.351562 5.140625,-1.0625 1.28125,-0.707031 2.195313,-1.71875 2.75,-3.03125 0.550781,-1.320312 0.828125,-2.894531 0.828125,-4.71875 0,-1.851562 -0.277344,-3.445312 -0.828125,-4.78125 -0.554687,-1.332031 -1.46875,-2.359375 -2.75,-3.078125 C 12.960938,-19.609375 11.25,-19.96875 9.09375,-19.96875 H 5 Z m 0,0"
             id="path362" />
        </g>
      </g>
    </g>
  </g>
</svg>
