<svg xmlns="http://www.w3.org/2000/svg" xmlns:xlink="http://www.w3.org/1999/xlink" width="500" zoomAndPan="magnify" viewBox="0 0 375 374.999991" height="500" preserveAspectRatio="xMidYMid meet" version="1.0"><defs><g/><clipPath id="51295770af"><path d="M 114.984375 93.863281 L 259.734375 93.863281 L 259.734375 238.613281 L 114.984375 238.613281 Z M 114.984375 93.863281 " clip-rule="nonzero"/></clipPath></defs><g clip-path="url(#51295770af)"><path fill="#32b6f8" d="M 187.359375 93.863281 C 147.449219 93.863281 114.984375 126.328125 114.984375 166.238281 C 114.984375 206.148438 147.449219 238.613281 187.359375 238.613281 C 227.269531 238.613281 259.734375 206.148438 259.734375 166.238281 C 259.734375 126.328125 227.269531 93.863281 187.359375 93.863281 Z M 224.496094 128.476562 L 225.335938 128.476562 C 225.9375 143.574219 219.046875 158.738281 205.277344 172.507812 L 205.207031 172.574219 L 205.148438 172.640625 C 202.460938 175.667969 200.457031 177.589844 198.011719 179.488281 L 196.800781 180.433594 L 196.800781 181.972656 C 196.800781 194.457031 193.421875 202.929688 185.136719 211.214844 L 184.214844 212.136719 L 184.214844 187.046875 L 170.742188 193.71875 L 159.542969 182.941406 L 166.550781 169.386719 L 141.460938 169.386719 L 142.382812 168.464844 C 150.671875 160.179688 159.144531 156.796875 171.628906 156.796875 L 173.039062 156.796875 L 173.976562 155.742188 C 176.429688 152.980469 178.589844 150.824219 181.09375 148.324219 C 194.445312 134.96875 208.644531 128.476562 224.496094 128.476562 Z M 199.949219 147.359375 C 199.535156 147.359375 199.125 147.398438 198.71875 147.480469 C 198.316406 147.558594 197.921875 147.679688 197.539062 147.835938 C 197.15625 147.996094 196.792969 148.1875 196.453125 148.417969 C 196.109375 148.648438 195.789062 148.910156 195.496094 149.203125 C 195.207031 149.492188 194.945312 149.8125 194.714844 150.15625 C 194.484375 150.5 194.292969 150.859375 194.132812 151.242188 C 193.976562 151.625 193.855469 152.019531 193.773438 152.421875 C 193.695312 152.828125 193.652344 153.238281 193.652344 153.652344 C 193.652344 154.066406 193.695312 154.472656 193.773438 154.878906 C 193.855469 155.285156 193.976562 155.679688 194.132812 156.058594 C 194.292969 156.441406 194.484375 156.804688 194.714844 157.148438 C 194.945312 157.492188 195.207031 157.808594 195.496094 158.101562 C 195.789062 158.394531 196.109375 158.65625 196.453125 158.882812 C 196.792969 159.113281 197.15625 159.308594 197.539062 159.464844 C 197.921875 159.625 198.316406 159.742188 198.71875 159.824219 C 199.125 159.90625 199.535156 159.945312 199.949219 159.945312 C 200.359375 159.945312 200.769531 159.90625 201.175781 159.824219 C 201.582031 159.742188 201.972656 159.625 202.355469 159.464844 C 202.738281 159.308594 203.101562 159.113281 203.445312 158.882812 C 203.789062 158.65625 204.105469 158.394531 204.398438 158.101562 C 204.691406 157.808594 204.949219 157.492188 205.179688 157.148438 C 205.410156 156.804688 205.605469 156.441406 205.761719 156.058594 C 205.921875 155.679688 206.039062 155.285156 206.121094 154.878906 C 206.199219 154.472656 206.242188 154.066406 206.242188 153.652344 C 206.242188 153.238281 206.199219 152.828125 206.121094 152.421875 C 206.039062 152.019531 205.921875 151.625 205.761719 151.242188 C 205.605469 150.859375 205.410156 150.5 205.179688 150.15625 C 204.949219 149.8125 204.691406 149.492188 204.398438 149.203125 C 204.105469 148.910156 203.789062 148.648438 203.445312 148.417969 C 203.101562 148.1875 202.738281 147.996094 202.355469 147.835938 C 201.972656 147.679688 201.582031 147.558594 201.175781 147.480469 C 200.769531 147.398438 200.359375 147.359375 199.949219 147.359375 Z M 155.179688 187.550781 L 157.78125 190.152344 C 155.984375 193.039062 155.699219 195.570312 155.925781 197.601562 C 157.996094 197.832031 160.574219 197.710938 163.53125 195.910156 L 166.109375 198.480469 C 165.5625 199.179688 164.996094 199.855469 164.417969 200.433594 C 159.382812 205.46875 152.777344 207.671875 146.484375 207.042969 C 146.167969 200.746094 148.371094 194.140625 153.40625 189.109375 C 153.933594 188.578125 154.542969 188.054688 155.179688 187.550781 Z M 155.179688 187.550781 " fill-opacity="1" fill-rule="nonzero"/></g><g fill="#99ebff" fill-opacity="1"><g transform="translate(97.7029, 273.946856)"><g><path d="M 1.671875 0 L 1.671875 -17.28125 L 4.84375 -17.28125 L 4.84375 -2.46875 L 12.484375 -2.46875 L 12.484375 0 Z M 1.671875 0 "/></g></g></g><g fill="#99ebff" fill-opacity="1"><g transform="translate(115.129115, 273.946856)"><g><path d="M 0.5625 0 L 6.890625 -17.28125 L 10.4375 -17.28125 L 16.765625 0 L 13.40625 0 L 12.015625 -4 L 5.28125 -4 L 3.875 0 Z M 6.140625 -6.46875 L 11.15625 -6.46875 L 8.640625 -13.65625 Z M 6.140625 -6.46875 "/></g></g></g><g fill="#99ebff" fill-opacity="1"><g transform="translate(136.257287, 273.946856)"><g><path d="M 8.34375 0.296875 C 7.070312 0.296875 5.925781 0.046875 4.90625 -0.453125 C 3.882812 -0.953125 3.070312 -1.710938 2.46875 -2.734375 C 1.875 -3.753906 1.578125 -5.046875 1.578125 -6.609375 L 1.578125 -17.28125 L 4.734375 -17.28125 L 4.734375 -6.59375 C 4.734375 -5.238281 5.054688 -4.234375 5.703125 -3.578125 C 6.359375 -2.921875 7.265625 -2.59375 8.421875 -2.59375 C 9.554688 -2.59375 10.453125 -2.921875 11.109375 -3.578125 C 11.765625 -4.234375 12.09375 -5.238281 12.09375 -6.59375 L 12.09375 -17.28125 L 15.25 -17.28125 L 15.25 -6.609375 C 15.25 -5.046875 14.9375 -3.753906 14.3125 -2.734375 C 13.6875 -1.710938 12.851562 -0.953125 11.8125 -0.453125 C 10.769531 0.046875 9.613281 0.296875 8.34375 0.296875 Z M 8.34375 0.296875 "/></g></g></g><g fill="#99ebff" fill-opacity="1"><g transform="translate(156.891865, 273.946856)"><g><path d="M 1.671875 0 L 1.671875 -17.28125 L 4.84375 -17.28125 L 12.96875 -5.109375 L 12.96875 -17.28125 L 16.125 -17.28125 L 16.125 0 L 12.96875 0 L 4.84375 -12.140625 L 4.84375 0 Z M 1.671875 0 "/></g></g></g><g fill="#99ebff" fill-opacity="1"><g transform="translate(178.513632, 273.946856)"><g><path d="M 9.5 0.296875 C 7.757812 0.296875 6.265625 -0.078125 5.015625 -0.828125 C 3.765625 -1.578125 2.800781 -2.617188 2.125 -3.953125 C 1.445312 -5.296875 1.109375 -6.847656 1.109375 -8.609375 C 1.109375 -10.367188 1.445312 -11.925781 2.125 -13.28125 C 2.800781 -14.632812 3.765625 -15.6875 5.015625 -16.4375 C 6.265625 -17.195312 7.757812 -17.578125 9.5 -17.578125 C 11.570312 -17.578125 13.269531 -17.0625 14.59375 -16.03125 C 15.925781 -15 16.753906 -13.554688 17.078125 -11.703125 L 13.609375 -11.703125 C 13.390625 -12.640625 12.929688 -13.375 12.234375 -13.90625 C 11.535156 -14.445312 10.609375 -14.71875 9.453125 -14.71875 C 7.859375 -14.71875 6.609375 -14.171875 5.703125 -13.078125 C 4.796875 -11.992188 4.34375 -10.503906 4.34375 -8.609375 C 4.34375 -6.722656 4.796875 -5.238281 5.703125 -4.15625 C 6.609375 -3.082031 7.859375 -2.546875 9.453125 -2.546875 C 10.609375 -2.546875 11.535156 -2.796875 12.234375 -3.296875 C 12.929688 -3.796875 13.390625 -4.488281 13.609375 -5.375 L 17.078125 -5.375 C 16.753906 -3.601562 15.925781 -2.210938 14.59375 -1.203125 C 13.269531 -0.203125 11.570312 0.296875 9.5 0.296875 Z M 9.5 0.296875 "/></g></g></g><g fill="#99ebff" fill-opacity="1"><g transform="translate(200.530278, 273.946856)"><g><path d="M 1.671875 0 L 1.671875 -17.28125 L 4.84375 -17.28125 L 4.84375 -10.09375 L 12.59375 -10.09375 L 12.59375 -17.28125 L 15.75 -17.28125 L 15.75 0 L 12.59375 0 L 12.59375 -7.53125 L 4.84375 -7.53125 L 4.84375 0 Z M 1.671875 0 "/></g></g></g><g fill="#99ebff" fill-opacity="1"><g transform="translate(221.781017, 273.946856)"><g><path d="M 1.828125 0 L 1.828125 -17.28125 L 7.5 -17.28125 C 8.851562 -17.28125 9.960938 -17.054688 10.828125 -16.609375 C 11.703125 -16.171875 12.347656 -15.570312 12.765625 -14.8125 C 13.191406 -14.050781 13.40625 -13.195312 13.40625 -12.25 C 13.40625 -11.3125 13.195312 -10.460938 12.78125 -9.703125 C 12.375 -8.941406 11.734375 -8.332031 10.859375 -7.875 C 9.984375 -7.425781 8.863281 -7.203125 7.5 -7.203125 L 3.90625 -7.203125 L 3.90625 0 Z M 3.90625 -8.96875 L 7.453125 -8.96875 C 8.835938 -8.96875 9.820312 -9.257812 10.40625 -9.84375 C 10.988281 -10.425781 11.28125 -11.226562 11.28125 -12.25 C 11.28125 -13.28125 10.988281 -14.085938 10.40625 -14.671875 C 9.820312 -15.253906 8.835938 -15.546875 7.453125 -15.546875 L 3.90625 -15.546875 Z M 3.90625 -8.96875 "/></g></g></g><g fill="#99ebff" fill-opacity="1"><g transform="translate(239.898272, 273.946856)"><g><path d="M 0.734375 0 L 7.109375 -17.28125 L 9.3125 -17.28125 L 15.65625 0 L 13.453125 0 L 11.875 -4.4375 L 4.515625 -4.4375 L 2.90625 0 Z M 5.140625 -6.125 L 11.25 -6.125 L 8.203125 -14.671875 Z M 5.140625 -6.125 "/></g></g></g><g fill="#99ebff" fill-opacity="1"><g transform="translate(260.113298, 273.946856)"><g><path d="M 1.828125 0 L 1.828125 -17.28125 L 7.140625 -17.28125 C 10.179688 -17.28125 12.421875 -16.503906 13.859375 -14.953125 C 15.296875 -13.410156 16.015625 -11.289062 16.015625 -8.59375 C 16.015625 -5.9375 15.296875 -3.835938 13.859375 -2.296875 C 12.421875 -0.765625 10.179688 0 7.140625 0 Z M 3.90625 -1.734375 L 7.078125 -1.734375 C 8.765625 -1.734375 10.101562 -2.003906 11.09375 -2.546875 C 12.09375 -3.097656 12.804688 -3.890625 13.234375 -4.921875 C 13.660156 -5.953125 13.875 -7.175781 13.875 -8.59375 C 13.875 -10.039062 13.660156 -11.28125 13.234375 -12.3125 C 12.804688 -13.351562 12.09375 -14.148438 11.09375 -14.703125 C 10.101562 -15.265625 8.765625 -15.546875 7.078125 -15.546875 L 3.90625 -15.546875 Z M 3.90625 -1.734375 "/></g></g></g></svg>