<svg xmlns="http://www.w3.org/2000/svg" xmlns:xlink="http://www.w3.org/1999/xlink" width="500" zoomAndPan="magnify" viewBox="0 0 375 374.999991" height="500" preserveAspectRatio="xMidYMid meet" version="1.0"><defs><g/><clipPath id="538f9c76ac"><path d="M 45.882812 167.484375 L 86.382812 167.484375 L 86.382812 207.984375 L 45.882812 207.984375 Z M 45.882812 167.484375 " clip-rule="nonzero"/></clipPath></defs><g clip-path="url(#538f9c76ac)"><path fill="#5e17eb" d="M 66.132812 167.484375 C 54.964844 167.484375 45.882812 176.566406 45.882812 187.734375 C 45.882812 198.902344 54.964844 207.984375 66.132812 207.984375 C 77.300781 207.984375 86.382812 198.902344 86.382812 187.734375 C 86.382812 176.566406 77.300781 167.484375 66.132812 167.484375 Z M 76.523438 177.167969 L 76.757812 177.167969 C 76.925781 181.394531 75 185.636719 71.144531 189.488281 L 71.125 189.507812 L 71.109375 189.527344 C 70.355469 190.371094 69.796875 190.910156 69.113281 191.441406 L 68.773438 191.707031 L 68.773438 192.136719 C 68.773438 195.628906 67.828125 198 65.511719 200.320312 L 65.253906 200.578125 L 65.253906 193.558594 L 61.484375 195.421875 L 58.351562 192.410156 L 60.308594 188.613281 L 53.289062 188.613281 L 53.546875 188.355469 C 55.867188 186.039062 58.238281 185.09375 61.730469 185.09375 L 62.125 185.09375 L 62.386719 184.796875 C 63.074219 184.027344 63.679688 183.421875 64.378906 182.722656 C 68.117188 178.984375 72.085938 177.167969 76.523438 177.167969 Z M 69.65625 182.453125 C 69.421875 182.453125 69.195312 182.496094 68.980469 182.585938 C 68.765625 182.675781 68.574219 182.800781 68.410156 182.96875 C 68.246094 183.132812 68.117188 183.324219 68.027344 183.539062 C 67.9375 183.753906 67.894531 183.980469 67.894531 184.214844 C 67.894531 184.445312 67.9375 184.671875 68.027344 184.886719 C 68.117188 185.101562 68.246094 185.292969 68.410156 185.457031 C 68.574219 185.625 68.765625 185.75 68.980469 185.839844 C 69.195312 185.929688 69.421875 185.972656 69.65625 185.972656 C 69.886719 185.972656 70.113281 185.929688 70.328125 185.839844 C 70.542969 185.75 70.734375 185.625 70.898438 185.457031 C 71.066406 185.292969 71.191406 185.101562 71.28125 184.886719 C 71.371094 184.671875 71.414062 184.445312 71.414062 184.214844 C 71.414062 183.980469 71.371094 183.753906 71.28125 183.539062 C 71.191406 183.324219 71.066406 183.132812 70.898438 182.96875 C 70.734375 182.800781 70.542969 182.675781 70.328125 182.585938 C 70.113281 182.496094 69.886719 182.453125 69.65625 182.453125 Z M 57.128906 193.699219 L 57.855469 194.425781 C 57.355469 195.234375 57.273438 195.941406 57.335938 196.511719 C 57.917969 196.574219 58.636719 196.539062 59.464844 196.035156 L 60.1875 196.753906 C 60.035156 196.949219 59.875 197.140625 59.714844 197.300781 C 58.304688 198.710938 56.457031 199.328125 54.695312 199.152344 C 54.609375 197.390625 55.222656 195.542969 56.632812 194.132812 C 56.78125 193.984375 56.949219 193.839844 57.128906 193.699219 Z M 57.128906 193.699219 " fill-opacity="1" fill-rule="nonzero"/></g><g fill="#5e17eb" fill-opacity="1"><g transform="translate(97.990378, 197.870598)"><g><path d="M 2.15625 0 L 2.15625 -22.1875 L 6.203125 -22.1875 L 6.203125 -3.171875 L 16.03125 -3.171875 L 16.03125 0 Z M 2.15625 0 "/></g></g></g><g fill="#5e17eb" fill-opacity="1"><g transform="translate(120.362698, 197.870598)"><g><path d="M 0.734375 0 L 8.84375 -22.1875 L 13.40625 -22.1875 L 21.515625 0 L 17.203125 0 L 15.4375 -5.140625 L 6.78125 -5.140625 L 4.96875 0 Z M 7.890625 -8.296875 L 14.328125 -8.296875 L 11.09375 -17.515625 Z M 7.890625 -8.296875 "/></g></g></g><g fill="#5e17eb" fill-opacity="1"><g transform="translate(147.488126, 197.870598)"><g><path d="M 10.703125 0.375 C 9.078125 0.375 7.609375 0.0546875 6.296875 -0.578125 C 4.992188 -1.222656 3.957031 -2.203125 3.1875 -3.515625 C 2.414062 -4.828125 2.03125 -6.488281 2.03125 -8.5 L 2.03125 -22.1875 L 6.078125 -22.1875 L 6.078125 -8.453125 C 6.078125 -6.722656 6.492188 -5.4375 7.328125 -4.59375 C 8.171875 -3.75 9.332031 -3.328125 10.8125 -3.328125 C 12.257812 -3.328125 13.40625 -3.75 14.25 -4.59375 C 15.101562 -5.4375 15.53125 -6.722656 15.53125 -8.453125 L 15.53125 -22.1875 L 19.578125 -22.1875 L 19.578125 -8.5 C 19.578125 -6.488281 19.175781 -4.828125 18.375 -3.515625 C 17.570312 -2.203125 16.5 -1.222656 15.15625 -0.578125 C 13.820312 0.0546875 12.335938 0.375 10.703125 0.375 Z M 10.703125 0.375 "/></g></g></g><g fill="#5e17eb" fill-opacity="1"><g transform="translate(173.979818, 197.870598)"><g><path d="M 2.15625 0 L 2.15625 -22.1875 L 6.203125 -22.1875 L 16.640625 -6.5625 L 16.640625 -22.1875 L 20.6875 -22.1875 L 20.6875 0 L 16.640625 0 L 6.203125 -15.59375 L 6.203125 0 Z M 2.15625 0 "/></g></g></g><g fill="#5e17eb" fill-opacity="1"><g transform="translate(201.738994, 197.870598)"><g><path d="M 12.203125 0.375 C 9.960938 0.375 8.039062 -0.101562 6.4375 -1.0625 C 4.832031 -2.019531 3.59375 -3.359375 2.71875 -5.078125 C 1.851562 -6.804688 1.421875 -8.800781 1.421875 -11.0625 C 1.421875 -13.320312 1.851562 -15.316406 2.71875 -17.046875 C 3.59375 -18.773438 4.832031 -20.125 6.4375 -21.09375 C 8.039062 -22.070312 9.960938 -22.5625 12.203125 -22.5625 C 14.859375 -22.5625 17.035156 -21.898438 18.734375 -20.578125 C 20.441406 -19.253906 21.503906 -17.398438 21.921875 -15.015625 L 17.453125 -15.015625 C 17.179688 -16.222656 16.597656 -17.171875 15.703125 -17.859375 C 14.804688 -18.546875 13.617188 -18.890625 12.140625 -18.890625 C 10.085938 -18.890625 8.476562 -18.191406 7.3125 -16.796875 C 6.15625 -15.398438 5.578125 -13.488281 5.578125 -11.0625 C 5.578125 -8.632812 6.15625 -6.726562 7.3125 -5.34375 C 8.476562 -3.957031 10.085938 -3.265625 12.140625 -3.265625 C 13.617188 -3.265625 14.804688 -3.585938 15.703125 -4.234375 C 16.597656 -4.878906 17.179688 -5.769531 17.453125 -6.90625 L 21.921875 -6.90625 C 21.503906 -4.625 20.441406 -2.835938 18.734375 -1.546875 C 17.035156 -0.265625 14.859375 0.375 12.203125 0.375 Z M 12.203125 0.375 "/></g></g></g><g fill="#5e17eb" fill-opacity="1"><g transform="translate(230.005166, 197.870598)"><g><path d="M 2.15625 0 L 2.15625 -22.1875 L 6.203125 -22.1875 L 6.203125 -12.953125 L 16.15625 -12.953125 L 16.15625 -22.1875 L 20.21875 -22.1875 L 20.21875 0 L 16.15625 0 L 16.15625 -9.671875 L 6.203125 -9.671875 L 6.203125 0 Z M 2.15625 0 "/></g></g></g><g fill="#5e17eb" fill-opacity="1"><g transform="translate(257.283336, 197.870598)"><g><path d="M 2.34375 0 L 2.34375 -22.1875 L 9.640625 -22.1875 C 11.367188 -22.1875 12.789062 -21.898438 13.90625 -21.328125 C 15.03125 -20.753906 15.859375 -19.984375 16.390625 -19.015625 C 16.929688 -18.046875 17.203125 -16.945312 17.203125 -15.71875 C 17.203125 -14.507812 16.9375 -13.421875 16.40625 -12.453125 C 15.882812 -11.484375 15.0625 -10.707031 13.9375 -10.125 C 12.820312 -9.539062 11.390625 -9.25 9.640625 -9.25 L 5 -9.25 L 5 0 Z M 5 -11.5 L 9.5625 -11.5 C 11.34375 -11.5 12.609375 -11.875 13.359375 -12.625 C 14.109375 -13.375 14.484375 -14.40625 14.484375 -15.71875 C 14.484375 -17.050781 14.109375 -18.09375 13.359375 -18.84375 C 12.609375 -19.59375 11.34375 -19.96875 9.5625 -19.96875 L 5 -19.96875 Z M 5 -11.5 "/></g></g></g><g fill="#5e17eb" fill-opacity="1"><g transform="translate(280.542904, 197.870598)"><g><path d="M 0.953125 0 L 9.125 -22.1875 L 11.953125 -22.1875 L 20.09375 0 L 17.265625 0 L 15.234375 -5.703125 L 5.796875 -5.703125 L 3.734375 0 Z M 6.59375 -7.859375 L 14.453125 -7.859375 L 10.515625 -18.828125 Z M 6.59375 -7.859375 "/></g></g></g><g fill="#5e17eb" fill-opacity="1"><g transform="translate(306.495897, 197.870598)"><g><path d="M 2.34375 0 L 2.34375 -22.1875 L 9.15625 -22.1875 C 13.0625 -22.1875 15.9375 -21.191406 17.78125 -19.203125 C 19.632812 -17.210938 20.5625 -14.488281 20.5625 -11.03125 C 20.5625 -7.625 19.632812 -4.929688 17.78125 -2.953125 C 15.9375 -0.984375 13.0625 0 9.15625 0 Z M 5 -2.21875 L 9.09375 -2.21875 C 11.25 -2.21875 12.960938 -2.570312 14.234375 -3.28125 C 15.515625 -3.988281 16.429688 -5 16.984375 -6.3125 C 17.535156 -7.632812 17.8125 -9.207031 17.8125 -11.03125 C 17.8125 -12.882812 17.535156 -14.476562 16.984375 -15.8125 C 16.429688 -17.144531 15.515625 -18.171875 14.234375 -18.890625 C 12.960938 -19.609375 11.25 -19.96875 9.09375 -19.96875 L 5 -19.96875 Z M 5 -2.21875 "/></g></g></g></svg>