<?xml version="1.0" encoding="UTF-8" standalone="no"?>
<svg
   width="600"
   zoomAndPan="magnify"
   viewBox="0 0 450 299.99999"
   height="400"
   preserveAspectRatio="xMidYMid"
   version="1.0"
   id="svg85"
   sodipodi:docname="splash.svg"
   inkscape:version="1.2.2 (732a01da63, 2022-12-09)"
   xmlns:inkscape="http://www.inkscape.org/namespaces/inkscape"
   xmlns:sodipodi="http://sodipodi.sourceforge.net/DTD/sodipodi-0.dtd"
   xmlns="http://www.w3.org/2000/svg"
   xmlns:svg="http://www.w3.org/2000/svg">
  <sodipodi:namedview
     id="namedview87"
     pagecolor="#505050"
     bordercolor="#eeeeee"
     borderopacity="1"
     inkscape:showpageshadow="0"
     inkscape:pageopacity="0"
     inkscape:pagecheckerboard="0"
     inkscape:deskcolor="#505050"
     showgrid="false"
     inkscape:zoom="2.054"
     inkscape:cx="249.75657"
     inkscape:cy="249.75657"
     inkscape:window-width="2560"
     inkscape:window-height="1369"
     inkscape:window-x="-8"
     inkscape:window-y="-8"
     inkscape:window-maximized="1"
     inkscape:current-layer="svg85" />
  <defs
     id="defs7">
    <g
       id="g2" />
    <clipPath
       id="cf7af765be">
      <path
         d="M 114.98438,93.863281 H 259.73437 V 238.61328 H 114.98438 Z m 0,0"
         clip-rule="nonzero"
         id="path4" />
    </clipPath>
  </defs>
  <g
     id="g231"
     transform="matrix(1.3594516,0,0,1.3594516,-30.239557,-100.21184)">
    <g
       clip-path="url(#cf7af765be)"
       id="g11">
      <path
         fill="#5e17eb"
         d="m 187.35937,93.863281 c -39.91015,0 -72.37499,32.464849 -72.37499,72.374999 0,39.91016 32.46484,72.375 72.37499,72.375 39.91016,0 72.375,-32.46484 72.375,-72.375 0,-39.91015 -32.46484,-72.374999 -72.375,-72.374999 z m 37.13672,34.613279 h 0.83985 c 0.60156,15.09766 -6.28907,30.26172 -20.0586,44.03125 l -0.0703,0.0664 -0.0586,0.0664 c -2.6875,3.02735 -4.69141,4.94922 -7.13672,6.84766 l -1.21094,0.94531 v 1.53907 c 0,12.48437 -3.37891,20.95703 -11.66406,29.24218 l -0.92188,0.92188 v -25.08985 l -13.47265,6.67188 -11.19922,-10.77734 7.00781,-13.55469 h -25.08984 l 0.92187,-0.92188 c 8.28906,-8.28515 16.76172,-11.66797 29.2461,-11.66797 h 1.41015 l 0.9375,-1.05468 c 2.45313,-2.76172 4.61328,-4.91797 7.11719,-7.41797 13.35156,-13.35547 27.55078,-19.84766 43.40234,-19.84766 z m -24.54687,18.88281 c -0.41406,0 -0.82422,0.0391 -1.23047,0.1211 -0.40234,0.0781 -0.79688,0.19922 -1.17969,0.35547 -0.38281,0.16015 -0.74609,0.35156 -1.08594,0.58203 -0.34375,0.23047 -0.66406,0.49219 -0.95703,0.78515 -0.28906,0.28907 -0.55078,0.60938 -0.78125,0.95313 -0.23047,0.34375 -0.42187,0.70312 -0.58203,1.08594 -0.15625,0.38281 -0.27734,0.77734 -0.35937,1.17968 -0.0781,0.40625 -0.1211,0.81641 -0.1211,1.23047 0,0.41407 0.043,0.82032 0.1211,1.22657 0.082,0.40625 0.20312,0.80078 0.35937,1.17968 0.16016,0.38282 0.35156,0.7461 0.58203,1.08985 0.23047,0.34375 0.49219,0.66015 0.78125,0.95312 0.29297,0.29297 0.61328,0.55469 0.95703,0.78125 0.33985,0.23047 0.70313,0.42578 1.08594,0.58203 0.38281,0.16016 0.77735,0.27735 1.17969,0.35938 0.40625,0.082 0.81641,0.12109 1.23047,0.12109 0.41015,0 0.82031,-0.0391 1.22656,-0.12109 0.40625,-0.082 0.79688,-0.19922 1.17969,-0.35938 0.38281,-0.15625 0.74609,-0.35156 1.08984,-0.58203 0.34375,-0.22656 0.66016,-0.48828 0.95313,-0.78125 0.29297,-0.29297 0.55078,-0.60937 0.78125,-0.95312 0.23047,-0.34375 0.42578,-0.70703 0.58203,-1.08985 0.16015,-0.3789 0.27734,-0.77343 0.35937,-1.17968 0.0781,-0.40625 0.1211,-0.8125 0.1211,-1.22657 0,-0.41406 -0.043,-0.82422 -0.1211,-1.23047 -0.082,-0.40234 -0.19922,-0.79687 -0.35937,-1.17968 -0.15625,-0.38282 -0.35156,-0.74219 -0.58203,-1.08594 -0.23047,-0.34375 -0.48828,-0.66406 -0.78125,-0.95313 -0.29297,-0.29296 -0.60938,-0.55468 -0.95313,-0.78515 -0.34375,-0.23047 -0.70703,-0.42188 -1.08984,-0.58203 -0.38281,-0.15625 -0.77344,-0.27735 -1.17969,-0.35547 -0.40625,-0.082 -0.81641,-0.1211 -1.22656,-0.1211 z m -44.76953,40.19141 2.60156,2.60156 c -1.79688,2.88672 -2.08203,5.41797 -1.85547,7.44922 2.07031,0.23047 4.64844,0.10938 7.60547,-1.6914 l 2.57812,2.57031 c -0.54687,0.69922 -1.11328,1.375 -1.6914,1.95312 -5.03516,5.03516 -11.64063,7.23828 -17.9336,6.60938 -0.3164,-6.29688 1.88672,-12.90235 6.92188,-17.9336 0.52734,-0.53125 1.13672,-1.05468 1.77344,-1.55859 z m 0,0"
         fill-opacity="1"
         fill-rule="nonzero"
         id="path9" />
    </g>
    <g
       fill="#5e17eb"
       fill-opacity="1"
       id="g19">
      <g
         transform="translate(97.7029,273.94686)"
         id="g17">
        <g
           id="g15">
          <path
             d="M 1.671875,0 V -17.28125 H 4.84375 v 14.8125 h 7.640625 V 0 Z m 0,0"
             id="path13" />
        </g>
      </g>
    </g>
    <g
       fill="#5e17eb"
       fill-opacity="1"
       id="g27">
      <g
         transform="translate(115.12912,273.94686)"
         id="g25">
        <g
           id="g23">
          <path
             d="M 0.5625,0 6.890625,-17.28125 H 10.4375 L 16.765625,0 H 13.40625 L 12.015625,-4 H 5.28125 L 3.875,0 Z m 5.578125,-6.46875 h 5.015625 l -2.515625,-7.1875 z m 0,0"
             id="path21" />
        </g>
      </g>
    </g>
    <g
       fill="#5e17eb"
       fill-opacity="1"
       id="g35">
      <g
         transform="translate(136.25729,273.94686)"
         id="g33">
        <g
           id="g31">
          <path
             d="m 8.34375,0.296875 c -1.273438,0 -2.417969,-0.25 -3.4375,-0.75 -1.023438,-0.5 -1.835938,-1.257813 -2.4375,-2.28125 -0.59375,-1.019531 -0.890625,-2.3125 -0.890625,-3.875 V -17.28125 h 3.15625 v 10.6875 c 0,1.355469 0.320313,2.359375 0.96875,3.015625 0.65625,0.65625 1.5625,0.984375 2.71875,0.984375 1.132813,0 2.03125,-0.328125 2.6875,-0.984375 0.65625,-0.65625 0.984375,-1.660156 0.984375,-3.015625 v -10.6875 H 15.25 v 10.671875 c 0,1.5625 -0.3125,2.855469 -0.9375,3.875 -0.625,1.023437 -1.460938,1.78125 -2.5,2.28125 -1.042969,0.5 -2.199219,0.75 -3.46875,0.75 z m 0,0"
             id="path29" />
        </g>
      </g>
    </g>
    <g
       fill="#5e17eb"
       fill-opacity="1"
       id="g43">
      <g
         transform="translate(156.89186,273.94686)"
         id="g41">
        <g
           id="g39">
          <path
             d="M 1.671875,0 V -17.28125 H 4.84375 l 8.125,12.171875 V -17.28125 H 16.125 V 0 h -3.15625 l -8.125,-12.140625 V 0 Z m 0,0"
             id="path37" />
        </g>
      </g>
    </g>
    <g
       fill="#5e17eb"
       fill-opacity="1"
       id="g51">
      <g
         transform="translate(178.51363,273.94686)"
         id="g49">
        <g
           id="g47">
          <path
             d="m 9.5,0.296875 c -1.742188,0 -3.234375,-0.375 -4.484375,-1.125 -1.25,-0.75 -2.214844,-1.789063 -2.890625,-3.125 -0.679688,-1.34375 -1.015625,-2.894531 -1.015625,-4.65625 0,-1.757813 0.335937,-3.316406 1.015625,-4.671875 0.675781,-1.351562 1.640625,-2.40625 2.890625,-3.15625 1.25,-0.757812 2.742187,-1.140625 4.484375,-1.140625 2.070312,0 3.769531,0.515625 5.09375,1.546875 1.332031,1.03125 2.160156,2.476562 2.484375,4.328125 h -3.46875 c -0.21875,-0.9375 -0.679687,-1.671875 -1.375,-2.203125 -0.699219,-0.539062 -1.625,-0.8125 -2.78125,-0.8125 -1.59375,0 -2.84375,0.546875 -3.75,1.640625 -0.90625,1.085937 -1.359375,2.574219 -1.359375,4.46875 0,1.886719 0.453125,3.371094 1.359375,4.453125 0.90625,1.074219 2.15625,1.609375 3.75,1.609375 1.15625,0 2.082031,-0.25 2.78125,-0.75 0.695313,-0.5 1.15625,-1.191406 1.375,-2.078125 h 3.46875 c -0.324219,1.773438 -1.152344,3.164062 -2.484375,4.171875 -1.324219,1 -3.023438,1.5 -5.09375,1.5 z m 0,0"
             id="path45" />
        </g>
      </g>
    </g>
    <g
       fill="#5e17eb"
       fill-opacity="1"
       id="g59">
      <g
         transform="translate(200.53028,273.94686)"
         id="g57">
        <g
           id="g55">
          <path
             d="M 1.671875,0 V -17.28125 H 4.84375 v 7.1875 h 7.75 v -7.1875 H 15.75 V 0 h -3.15625 v -7.53125 h -7.75 V 0 Z m 0,0"
             id="path53" />
        </g>
      </g>
    </g>
    <g
       fill="#5e17eb"
       fill-opacity="1"
       id="g67">
      <g
         transform="translate(221.78102,273.94686)"
         id="g65">
        <g
           id="g63">
          <path
             d="M 1.828125,0 V -17.28125 H 7.5 c 1.351562,0 2.460938,0.226562 3.328125,0.671875 0.875,0.4375 1.519531,1.039063 1.9375,1.796875 0.425781,0.761719 0.640625,1.617188 0.640625,2.5625 0,0.9375 -0.210938,1.789062 -0.625,2.546875 C 12.375,-8.941406 11.734375,-8.332031 10.859375,-7.875 9.984375,-7.425781 8.863281,-7.203125 7.5,-7.203125 H 3.90625 V 0 Z M 3.90625,-8.96875 h 3.546875 c 1.382813,0 2.367187,-0.289062 2.953125,-0.875 0.582031,-0.582031 0.875,-1.382812 0.875,-2.40625 0,-1.03125 -0.292969,-1.835938 -0.875,-2.421875 -0.585938,-0.582031 -1.570312,-0.875 -2.953125,-0.875 H 3.90625 Z m 0,0"
             id="path61" />
        </g>
      </g>
    </g>
    <g
       fill="#5e17eb"
       fill-opacity="1"
       id="g75">
      <g
         transform="translate(239.89827,273.94686)"
         id="g73">
        <g
           id="g71">
          <path
             d="m 0.734375,0 6.375,-17.28125 H 9.3125 L 15.65625,0 H 13.453125 L 11.875,-4.4375 H 4.515625 L 2.90625,0 Z m 4.40625,-6.125 H 11.25 l -3.046875,-8.546875 z m 0,0"
             id="path69" />
        </g>
      </g>
    </g>
    <g
       fill="#5e17eb"
       fill-opacity="1"
       id="g83">
      <g
         transform="translate(260.1133,273.94686)"
         id="g81">
        <g
           id="g79">
          <path
             d="m 1.828125,0 v -17.28125 h 5.3125 c 3.039063,0 5.28125,0.777344 6.71875,2.328125 1.4375,1.542969 2.15625,3.664063 2.15625,6.359375 0,2.65625 -0.71875,4.757812 -2.15625,6.296875 C 12.421875,-0.765625 10.179688,0 7.140625,0 Z M 3.90625,-1.734375 h 3.171875 c 1.6875,0 3.023437,-0.269531 4.015625,-0.8125 1,-0.550781 1.710938,-1.34375 2.140625,-2.375 0.425781,-1.03125 0.640625,-2.253906 0.640625,-3.671875 0,-1.445312 -0.214844,-2.6875 -0.640625,-3.71875 -0.429687,-1.039062 -1.140625,-1.835938 -2.140625,-2.390625 -0.992188,-0.5625 -2.328125,-0.84375 -4.015625,-0.84375 H 3.90625 Z m 0,0"
             id="path77" />
        </g>
      </g>
    </g>
  </g>
</svg>
